<svg t="1737515834690" class="icon" viewBox="0 0 1024 1024" version="1.1" xmlns="http://www.w3.org/2000/svg" p-id="4225" width="1024" height="1024"><path d="M986.46611 736.544945c0 34.558611-24.464026 76.926241-54.388015 94.194965l-312.276095 180.305796c-29.92399 17.268724-78.873205 17.268724-108.797195 0.042325L198.686385 830.73991c-29.92399-17.268724-54.388016-59.636354-54.388016-94.194965V375.954515c0-34.558611 24.464026-76.947403 54.388016-94.194964l312.31842-180.326959c29.92399-17.268724 78.873205-17.268724 108.797195 0l312.276095 180.326959c29.92399 17.268724 54.388016 59.657516 54.388015 94.216127v360.569267z" fill="#ABD1FF" p-id="4226"></path><path d="M487.493098 994.24256c-25.712622 0-50.303624-6.031356-69.223035-16.951284L105.972806 796.985479c-38.791141-22.411249-69.201872-75.063927-69.201873-119.865261V316.550951c0-44.822497 30.410731-97.475176 69.223035-119.865262L418.270063 16.35873c37.817659-21.818694 100.607248-21.818694 138.424908 0l312.276095 180.326959c38.812304 22.411249 69.201872 75.063927 69.201872 119.886424v360.59043c0 44.801335-30.389568 97.454013-69.201872 119.865262l-312.276095 180.305796c-18.898248 10.877603-43.48925 16.908959-69.201873 16.908959z m0-935.558526c-15.258272 0-29.691201 3.280211-39.574159 8.994128L135.621681 248.026283c-20.718236 11.935736-39.595322 44.610871-39.595322 68.54583v360.59043c0 23.93496 18.877086 56.588932 39.595322 68.524668l312.297258 180.305796c19.78708 11.448995 59.382402 11.448995 79.148319 0l312.276095-180.305796c20.718236-11.935736 39.552997-44.589708 39.552997-68.524668v-360.611592c0-23.913797-18.855923-56.610094-39.552997-68.566993l-312.276095-180.305796c-9.882959-5.713916-24.315887-8.994127-39.57416-8.994128z" fill="#292929" p-id="4227"></path><path d="M256.904841 489.534469c0-97.877266 65.498408-153.894806 140.075594-153.894806 38.283238 0 69.074897 17.755465 89.179416 38.283238l-37.076966 44.991798c-14.60223-13.417121-30.008641-22.89799-50.917341-22.89799-37.881147 0-69.053734 33.944894-69.053734 91.168706 0 58.40892 26.834243 92.332651 68.270716 92.332651 23.30008 0 42.219491-11.851085 56.038703-26.855405l37.076966 44.20878c-24.866116 28.80237-57.604739 43.4046-95.866814 43.404599-74.598349-0.021163-137.72654-51.298269-137.72654-150.741571zM520.908926 549.128498v-138.890486h70.238843v130.213798c0 31.172587 8.316922 39.849274 26.030062 39.849274 15.787338 0 25.670297-6.30647 37.479057-22.876827v-147.186245h70.260005v224.514576H667.693081l-5.121361-30.770496h-1.566037c-18.559646 22.093809-39.468346 36.293948-70.217679 36.293948-48.970377-0.021163-69.879077-35.130003-69.879078-91.147542z" fill="#292929" p-id="4228"></path></svg>